<?xml version="1.0" standalone="no"?>
<!DOCTYPE svg PUBLIC "-//W3C//DTD SVG 20010904//EN"
 "http://www.w3.org/TR/2001/REC-SVG-20010904/DTD/svg10.dtd">
<svg version="1.0" xmlns="http://www.w3.org/2000/svg"
 width="500.000000pt" height="500.000000pt" viewBox="0 0 500.000000 500.000000"
 preserveAspectRatio="xMidYMid meet">
<metadata>
Created by potrace 1.11, written by Peter Selinger 2001-2013
</metadata>
<g transform="translate(0.000000,500.000000) scale(0.100000,-0.100000)"
fill="#000000" stroke="none">
<path d="M2215 4984 c-299 -38 -531 -105 -790 -229 -672 -320 -1166 -923
-1350 -1650 -51 -200 -70 -350 -70 -557 0 -118 2 -140 18 -155 16 -16 47 -18
365 -21 l347 -3 0 125 0 126 -242 0 -242 0 4 38 c12 113 16 152 19 168 2 11 7
42 11 69 5 28 9 52 10 55 1 3 7 32 14 65 25 115 103 331 170 470 275 568 787
1000 1394 1175 56 16 117 32 136 35 19 3 37 7 40 9 3 2 31 7 61 11 30 4 58 9
61 11 28 17 440 26 565 12 268 -30 506 -99 749 -218 439 -215 786 -553 1014
-987 29 -57 57 -100 62 -97 5 3 9 0 9 -6 0 -11 43 -31 75 -34 42 -4 124 51
110 74 -3 5 -2 10 4 10 21 0 3 88 -33 159 -195 384 -524 742 -906 985 -182
116 -485 244 -708 300 -101 26 -125 30 -232 46 -36 6 -78 13 -95 16 -65 12
-472 11 -570 -2z"/>
<path d="M2338 4125 c-2 -2 -29 -6 -60 -9 -243 -20 -577 -157 -798 -328 -246
-191 -445 -472 -544 -770 -30 -89 -73 -272 -75 -318 0 -8 -3 -68 -7 -132 -5
-89 -4 -118 5 -118 7 0 10 -4 7 -8 -3 -4 7 -12 22 -18 17 -6 578 -10 1541 -9
l1513 0 -5 -71 c-27 -324 -187 -652 -438 -895 -354 -343 -835 -482 -1327 -383
-256 52 -513 191 -712 384 -100 98 -149 156 -214 257 -44 68 -83 102 -113 97
-7 -1 -23 -2 -35 -3 -12 0 -19 -4 -15 -7 3 -4 -1 -13 -9 -21 -19 -20 -14 -66
13 -119 58 -110 247 -326 373 -426 232 -184 529 -310 815 -345 79 -10 321 -10
410 0 55 6 224 43 280 61 6 1 24 7 40 11 27 7 97 37 194 82 67 31 182 102 259
160 306 229 519 556 607 928 30 128 35 165 40 301 4 103 3 113 -16 130 -22 20
31 20 -2965 24 l-111 0 4 33 c32 293 116 523 271 741 73 104 235 265 339 339
378 268 868 344 1308 201 321 -104 624 -343 797 -630 64 -106 81 -124 123
-131 70 -11 100 51 64 132 -28 63 -141 226 -216 311 -259 293 -571 462 -993
539 -40 7 -365 16 -372 10z"/>
<path d="M4230 2615 c-1 -3 -1 -54 -1 -115 0 -60 0 -114 1 -120 0 -6 93 -10
259 -10 l260 0 -5 -42 c-35 -332 -95 -549 -224 -813 -277 -570 -777 -992
-1387 -1174 -55 -16 -113 -32 -129 -35 -261 -48 -288 -51 -504 -51 -186 0
-252 5 -395 30 -541 95 -1041 397 -1381 835 -61 78 -154 216 -154 227 0 17
-99 115 -109 109 -6 -4 -11 -3 -11 2 0 16 -46 20 -77 7 -69 -30 -91 -111 -50
-190 160 -317 522 -692 876 -909 266 -163 633 -300 896 -332 22 -3 46 -7 53
-10 34 -11 195 -19 377 -19 207 1 311 11 498 50 385 81 760 263 1082 528 89
73 262 250 340 347 155 195 250 354 370 623 48 108 133 409 150 527 2 14 6 48
10 75 4 28 9 59 11 69 2 11 6 82 10 158 7 159 -4 222 -40 232 -26 7 -726 8
-726 1z"/>
</g>
</svg>
