<?xml version="1.0" standalone="no"?>
<!DOCTYPE svg PUBLIC "-//W3C//DTD SVG 20010904//EN"
 "http://www.w3.org/TR/2001/REC-SVG-20010904/DTD/svg10.dtd">
<svg version="1.0" xmlns="http://www.w3.org/2000/svg"
 width="500.000000pt" height="500.000000pt" viewBox="0 0 500.000000 500.000000"
 preserveAspectRatio="xMidYMid meet">

<g transform="translate(0.000000,500.000000) scale(0.100000,-0.100000)"
fill="#000000" stroke="none">
<path d="M2265 4989 c-921 -87 -1729 -688 -2079 -1544 -115 -283 -186 -635
-186 -920 0 -161 -15 -155 406 -155 l324 0 0 125 0 125 -240 0 -240 0 6 58
c30 303 97 546 220 801 219 455 580 817 1037 1041 1088 534 2407 105 2976
-970 62 -116 98 -150 160 -150 71 0 121 55 121 133 0 29 -107 226 -195 357
-512 763 -1399 1185 -2310 1099z"/>
<path d="M2305 4121 c-798 -94 -1406 -736 -1451 -1536 -6 -97 -5 -118 10 -139
l16 -26 1532 0 1531 0 -6 -82 c-34 -433 -327 -881 -724 -1108 -262 -150 -572
-219 -860 -191 -463 45 -845 276 -1111 672 -54 81 -64 89 -117 89 -38 0 -65
-28 -65 -69 0 -31 47 -116 115 -206 246 -327 597 -545 1006 -626 163 -33 435
-33 598 0 745 147 1285 763 1327 1511 6 106 5 117 -14 140 l-20 25 -1529 3
-1529 2 9 88 c53 522 411 989 917 1197 105 43 277 83 413 96 266 26 544 -28
795 -155 211 -106 433 -306 552 -495 108 -172 154 -208 211 -162 45 37 26 101
-77 256 -239 359 -621 612 -1049 695 -123 23 -365 34 -480 21z"/>
<path d="M4230 2495 l0 -125 260 0 260 0 -6 -47 c-35 -322 -96 -544 -215 -793
-222 -461 -582 -825 -1042 -1050 -618 -304 -1348 -306 -1964 -6 -156 76 -233
123 -383 235 -198 148 -421 391 -550 601 -75 122 -120 160 -191 160 -43 0 -89
-46 -96 -97 -7 -54 20 -112 125 -268 773 -1145 2314 -1448 3462 -680 484 324
834 798 1004 1359 89 293 134 731 83 809 l-17 27 -365 0 -365 0 0 -125z"/>
</g>
</svg>
